<?xml version="1.0" encoding="utf-8"?>
<svg xmlns="http://www.w3.org/2000/svg"
xmlns:xlink="http://www.w3.org/1999/xlink"
width="500" height="500" style="background: #000000">
<circle cx="361.6" cy="268.1" r="2.9" stroke="none" fill="#ffffff" name="And"/>
<circle cx="185.5" cy="135.4" r="1.0" stroke="none" fill="#ffffff" name="And"/>
<circle cx="252.3" cy="175.5" r="1.0" stroke="none" fill="#ffffff" name="And"/>
<circle cx="285.8" cy="201.9" r="1.0" stroke="none" fill="#ffffff" name="And"/>
<circle cx="308.8" cy="220.7" r="1.0" stroke="none" fill="#ffffff" name="And"/>
<circle cx="228.7" cy="167.6" r="1.0" stroke="none" fill="#ffffff" name="And"/>
<circle cx="301.2" cy="217.4" r="1.0" stroke="none" fill="#ffffff" name="And"/>
<circle cx="401.0" cy="319.0" r="1.0" stroke="none" fill="#ffffff" name="And"/>
<circle cx="374.6" cy="296.2" r="1.0" stroke="none" fill="#ffffff" name="And"/>
<circle cx="420.3" cy="346.9" r="1.0" stroke="none" fill="#ffffff" name="And"/>
<circle cx="407.2" cy="332.2" r="1.7" stroke="none" fill="#ffffff" name="And"/>
<circle cx="317.7" cy="253.5" r="1.0" stroke="none" fill="#ffffff" name="And"/>
<circle cx="477.9" cy="430.6" r="1.0" stroke="none" fill="#ffffff" name="And"/>
<circle cx="310.3" cy="260.8" r="1.0" stroke="none" fill="#ffffff" name="And"/>
<circle cx="495.0" cy="461.1" r="1.0" stroke="none" fill="#ffffff" name="And"/>
<circle cx="350.9" cy="301.6" r="1.1" stroke="none" fill="#ffffff" name="And"/>
<circle cx="500.0" cy="470.5" r="1.0" stroke="none" fill="#ffffff" name="And"/>
<circle cx="323.0" cy="290.7" r="1.0" stroke="none" fill="#ffffff" name="And"/>
<circle cx="294.3" cy="280.2" r="1.0" stroke="none" fill="#ffffff" name="And"/>
<circle cx="249.8" cy="256.4" r="1.0" stroke="none" fill="#ffffff" name="And"/>
<circle cx="399.9" cy="364.7" r="2.9" stroke="none" fill="#ffffff" name="And"/>
<circle cx="321.4" cy="302.4" r="1.0" stroke="none" fill="#ffffff" name="And"/>
<circle cx="376.9" cy="346.7" r="1.0" stroke="none" fill="#ffffff" name="And"/>
<circle cx="284.9" cy="300.5" r="1.0" stroke="none" fill="#ffffff" name="And"/>
<circle cx="388.7" cy="380.1" r="1.0" stroke="none" fill="#ffffff" name="And"/>
<circle cx="290.5" cy="314.2" r="1.0" stroke="none" fill="#ffffff" name="And"/>
<circle cx="269.1" cy="305.6" r="1.0" stroke="none" fill="#ffffff" name="And"/>
<circle cx="351.1" cy="375.8" r="1.0" stroke="none" fill="#ffffff" name="And"/>
<circle cx="249.4" cy="309.3" r="1.4" stroke="none" fill="#ffffff" name="And"/>
<circle cx="311.8" cy="352.1" r="1.0" stroke="none" fill="#ffffff" name="And"/>
<circle cx="364.1" cy="394.3" r="1.0" stroke="none" fill="#ffffff" name="And"/>
<circle cx="367.3" cy="425.8" r="1.0" stroke="none" fill="#ffffff" name="And"/>
<circle cx="412.4" cy="473.5" r="1.0" stroke="none" fill="#ffffff" name="And"/>
<circle cx="348.2" cy="435.3" r="2.7" stroke="none" fill="#ffffff" name="And"/>
<circle cx="348.2" cy="435.3" r="1.0" stroke="none" fill="#ffffff" name="And"/>
<circle cx="406.9" cy="500.0" r="1.0" stroke="none" fill="#ffffff" name="And"/>
<circle cx="392.1" cy="492.1" r="1.0" stroke="none" fill="#ffffff" name="And"/>
<circle cx="392.1" cy="492.1" r="1.0" stroke="none" fill="#ffffff" name="And"/>
<circle cx="322.2" cy="437.3" r="1.0" stroke="none" fill="#ffffff" name="And"/>
<circle cx="276.1" cy="416.9" r="1.0" stroke="none" fill="#ffffff" name="And"/>
<circle cx="233.7" cy="391.1" r="1.0" stroke="none" fill="#ffffff" name="And"/>
<circle cx="235.4" cy="400.3" r="1.0" stroke="none" fill="#ffffff" name="And"/>
<circle cx="230.9" cy="400.1" r="1.0" stroke="none" fill="#ffffff" name="And"/>
<circle cx="225.9" cy="401.9" r="1.0" stroke="none" fill="#ffffff" name="And"/>
<circle cx="71.0" cy="23.5" r="1.4" stroke="none" fill="#ffffff" name="And"/>
<circle cx="68.8" cy="22.7" r="1.0" stroke="none" fill="#ffffff" name="And"/>
<circle cx="0.0" cy="0.0" r="1.0" stroke="none" fill="#ffffff" name="And"/>
<circle cx="46.6" cy="16.3" r="1.0" stroke="none" fill="#ffffff" name="And"/>
<circle cx="16.5" cy="7.4" r="1.0" stroke="none" fill="#ffffff" name="And"/>
<circle cx="82.3" cy="32.7" r="1.0" stroke="none" fill="#ffffff" name="And"/>
<circle cx="26.6" cy="14.7" r="1.0" stroke="none" fill="#ffffff" name="And"/>
<circle cx="42.9" cy="24.3" r="1.0" stroke="none" fill="#ffffff" name="And"/>
<circle cx="120.3" cy="56.0" r="1.0" stroke="none" fill="#ffffff" name="And"/>
<circle cx="51.2" cy="28.4" r="1.0" stroke="none" fill="#ffffff" name="And"/>
<circle cx="121.1" cy="57.1" r="1.0" stroke="none" fill="#ffffff" name="And"/>
<circle cx="161.1" cy="82.1" r="1.0" stroke="none" fill="#ffffff" name="And"/>
<circle cx="130.8" cy="66.5" r="1.0" stroke="none" fill="#ffffff" name="And"/>
<circle cx="178.3" cy="96.3" r="1.0" stroke="none" fill="#ffffff" name="And"/>
<circle cx="176.6" cy="96.8" r="1.0" stroke="none" fill="#ffffff" name="And"/>
<circle cx="116.1" cy="68.8" r="1.2" stroke="none" fill="#ffffff" name="And"/>
<circle cx="153.1" cy="85.9" r="1.0" stroke="none" fill="#ffffff" name="And"/>
<circle cx="71.6" cy="55.7" r="1.0" stroke="none" fill="#ffffff" name="And"/>
<circle cx="146.4" cy="84.6" r="1.0" stroke="none" fill="#ffffff" name="And"/>
<circle cx="134.5" cy="85.0" r="1.0" stroke="none" fill="#ffffff" name="And"/>
</svg>
