<?xml version="1.0" encoding="utf-8"?>
<svg xmlns="http://www.w3.org/2000/svg"
xmlns:xlink="http://www.w3.org/1999/xlink"
width="500" height="500" style="background: #000000">
<circle cx="480.0" cy="317.4" r="1.0" stroke="none" fill="#ffffff" name="Aur"/>
<circle cx="475.7" cy="379.1" r="2.3" stroke="none" fill="#ffffff" name="Aur"/>
<circle cx="457.1" cy="301.7" r="1.0" stroke="none" fill="#ffffff" name="Aur"/>
<circle cx="450.1" cy="277.1" r="1.0" stroke="none" fill="#ffffff" name="Aur"/>
<circle cx="449.1" cy="272.8" r="1.0" stroke="none" fill="#ffffff" name="Aur"/>
<circle cx="433.4" cy="203.8" r="2.0" stroke="none" fill="#ffffff" name="Aur"/>
<circle cx="439.4" cy="250.1" r="1.2" stroke="none" fill="#ffffff" name="Aur"/>
<circle cx="399.2" cy="77.0" r="1.0" stroke="none" fill="#ffffff" name="Aur"/>
<circle cx="427.5" cy="249.5" r="1.8" stroke="none" fill="#ffffff" name="Aur"/>
<circle cx="413.4" cy="299.0" r="1.0" stroke="none" fill="#ffffff" name="Aur"/>
<circle cx="418.0" cy="397.3" r="1.0" stroke="none" fill="#ffffff" name="Aur"/>
<circle cx="388.3" cy="173.9" r="4.9" stroke="none" fill="#ffffff" name="Aur"/>
<circle cx="407.9" cy="387.0" r="1.0" stroke="none" fill="#ffffff" name="Aur"/>
<circle cx="406.8" cy="380.5" r="1.0" stroke="none" fill="#ffffff" name="Aur"/>
<circle cx="393.3" cy="274.1" r="1.0" stroke="none" fill="#ffffff" name="Aur"/>
<circle cx="403.1" cy="377.3" r="1.0" stroke="none" fill="#ffffff" name="Aur"/>
<circle cx="401.1" cy="378.0" r="1.0" stroke="none" fill="#ffffff" name="Aur"/>
<circle cx="382.4" cy="246.3" r="1.0" stroke="none" fill="#ffffff" name="Aur"/>
<circle cx="397.1" cy="463.2" r="1.0" stroke="none" fill="#ffffff" name="Aur"/>
<circle cx="381.3" cy="322.0" r="1.0" stroke="none" fill="#ffffff" name="Aur"/>
<circle cx="376.0" cy="372.1" r="1.0" stroke="none" fill="#ffffff" name="Aur"/>
<circle cx="362.2" cy="412.1" r="1.0" stroke="none" fill="#ffffff" name="Aur"/>
<circle cx="344.2" cy="442.1" r="1.0" stroke="none" fill="#ffffff" name="Aur"/>
<circle cx="306.6" cy="116.8" r="1.0" stroke="none" fill="#ffffff" name="Aur"/>
<circle cx="304.6" cy="297.2" r="1.0" stroke="none" fill="#ffffff" name="Aur"/>
<circle cx="299.8" cy="329.3" r="1.0" stroke="none" fill="#ffffff" name="Aur"/>
<circle cx="297.6" cy="298.0" r="1.0" stroke="none" fill="#ffffff" name="Aur"/>
<circle cx="281.9" cy="20.0" r="1.0" stroke="none" fill="#ffffff" name="Aur"/>
<circle cx="271.8" cy="43.5" r="1.3" stroke="none" fill="#ffffff" name="Aur"/>
<circle cx="272.7" cy="200.0" r="3.1" stroke="none" fill="#ffffff" name="Aur"/>
<circle cx="271.5" cy="183.2" r="1.0" stroke="none" fill="#ffffff" name="Aur"/>
<circle cx="272.8" cy="331.4" r="2.4" stroke="none" fill="#ffffff" name="Aur"/>
<circle cx="268.6" cy="150.1" r="1.0" stroke="none" fill="#ffffff" name="Aur"/>
<circle cx="262.1" cy="234.5" r="1.0" stroke="none" fill="#ffffff" name="Aur"/>
<circle cx="257.1" cy="233.3" r="1.0" stroke="none" fill="#ffffff" name="Aur"/>
<circle cx="251.7" cy="309.7" r="1.0" stroke="none" fill="#ffffff" name="Aur"/>
<circle cx="241.2" cy="136.0" r="1.0" stroke="none" fill="#ffffff" name="Aur"/>
<circle cx="241.2" cy="136.0" r="1.0" stroke="none" fill="#ffffff" name="Aur"/>
<circle cx="220.0" cy="460.4" r="1.0" stroke="none" fill="#ffffff" name="Aur"/>
<circle cx="223.9" cy="173.9" r="1.0" stroke="none" fill="#ffffff" name="Aur"/>
<circle cx="222.0" cy="174.9" r="1.0" stroke="none" fill="#ffffff" name="Aur"/>
<circle cx="220.1" cy="55.8" r="1.0" stroke="none" fill="#ffffff" name="Aur"/>
<circle cx="207.7" cy="124.6" r="1.0" stroke="none" fill="#ffffff" name="Aur"/>
<circle cx="176.2" cy="441.0" r="1.0" stroke="none" fill="#ffffff" name="Aur"/>
<circle cx="190.8" cy="167.2" r="1.0" stroke="none" fill="#ffffff" name="Aur"/>
<circle cx="151.3" cy="480.0" r="1.0" stroke="none" fill="#ffffff" name="Aur"/>
<circle cx="155.4" cy="288.0" r="1.0" stroke="none" fill="#ffffff" name="Aur"/>
<circle cx="155.8" cy="279.3" r="1.0" stroke="none" fill="#ffffff" name="Aur"/>
<circle cx="141.6" cy="462.9" r="1.0" stroke="none" fill="#ffffff" name="Aur"/>
<circle cx="158.6" cy="235.4" r="1.0" stroke="none" fill="#ffffff" name="Aur"/>
<circle cx="136.7" cy="474.4" r="1.0" stroke="none" fill="#ffffff" name="Aur"/>
<circle cx="151.9" cy="199.8" r="1.0" stroke="none" fill="#ffffff" name="Aur"/>
<circle cx="139.9" cy="214.4" r="1.0" stroke="none" fill="#ffffff" name="Aur"/>
<circle cx="149.1" cy="126.7" r="1.0" stroke="none" fill="#ffffff" name="Aur"/>
<circle cx="124.7" cy="242.9" r="1.0" stroke="none" fill="#ffffff" name="Aur"/>
<circle cx="111.6" cy="290.9" r="1.0" stroke="none" fill="#ffffff" name="Aur"/>
<circle cx="110.1" cy="298.0" r="1.0" stroke="none" fill="#ffffff" name="Aur"/>
<circle cx="108.1" cy="296.5" r="1.0" stroke="none" fill="#ffffff" name="Aur"/>
<circle cx="119.9" cy="165.0" r="1.0" stroke="none" fill="#ffffff" name="Aur"/>
<circle cx="91.8" cy="301.5" r="1.0" stroke="none" fill="#ffffff" name="Aur"/>
<circle cx="58.3" cy="272.9" r="1.0" stroke="none" fill="#ffffff" name="Aur"/>
<circle cx="45.1" cy="242.6" r="1.0" stroke="none" fill="#ffffff" name="Aur"/>
<circle cx="20.0" cy="308.1" r="1.0" stroke="none" fill="#ffffff" name="Aur"/>
<circle cx="27.3" cy="241.8" r="1.0" stroke="none" fill="#ffffff" name="Aur"/>
</svg>
