<?xml version="1.0" encoding="utf-8"?>
<svg xmlns="http://www.w3.org/2000/svg"
xmlns:xlink="http://www.w3.org/1999/xlink"
width="500" height="500" style="background: #000000">
<circle cx="500.0" cy="358.2" r="1.0" stroke="none" fill="#ffffff" name="Boo"/>
<circle cx="493.9" cy="329.0" r="1.0" stroke="none" fill="#ffffff" name="Boo"/>
<circle cx="462.1" cy="293.4" r="1.0" stroke="none" fill="#ffffff" name="Boo"/>
<circle cx="472.6" cy="388.9" r="1.0" stroke="none" fill="#ffffff" name="Boo"/>
<circle cx="463.9" cy="408.4" r="1.0" stroke="none" fill="#ffffff" name="Boo"/>
<circle cx="455.8" cy="345.8" r="1.0" stroke="none" fill="#ffffff" name="Boo"/>
<circle cx="443.6" cy="385.0" r="1.0" stroke="none" fill="#ffffff" name="Boo"/>
<circle cx="436.1" cy="380.1" r="2.3" stroke="none" fill="#ffffff" name="Boo"/>
<circle cx="414.9" cy="275.0" r="1.0" stroke="none" fill="#ffffff" name="Boo"/>
<circle cx="413.4" cy="342.9" r="1.0" stroke="none" fill="#ffffff" name="Boo"/>
<circle cx="394.4" cy="277.1" r="1.0" stroke="none" fill="#ffffff" name="Boo"/>
<circle cx="329.8" cy="24.9" r="1.0" stroke="none" fill="#ffffff" name="Boo"/>
<circle cx="355.2" cy="305.5" r="1.0" stroke="none" fill="#ffffff" name="Boo"/>
<circle cx="345.7" cy="445.5" r="1.0" stroke="none" fill="#ffffff" name="Boo"/>
<circle cx="309.2" cy="0.0" r="1.0" stroke="none" fill="#ffffff" name="Boo"/>
<circle cx="309.1" cy="0.0" r="1.0" stroke="none" fill="#ffffff" name="Boo"/>
<circle cx="343.0" cy="477.5" r="1.0" stroke="none" fill="#ffffff" name="Boo"/>
<circle cx="334.9" cy="374.8" r="5.0" stroke="none" fill="#ffffff" name="Boo"/>
<circle cx="301.2" cy="4.8" r="1.0" stroke="none" fill="#ffffff" name="Boo"/>
<circle cx="307.2" cy="63.1" r="1.0" stroke="none" fill="#ffffff" name="Boo"/>
<circle cx="320.0" cy="445.6" r="1.0" stroke="none" fill="#ffffff" name="Boo"/>
<circle cx="316.4" cy="408.2" r="1.0" stroke="none" fill="#ffffff" name="Boo"/>
<circle cx="272.2" cy="0.1" r="1.0" stroke="none" fill="#ffffff" name="Boo"/>
<circle cx="282.9" cy="375.2" r="1.0" stroke="none" fill="#ffffff" name="Boo"/>
<circle cx="262.3" cy="22.1" r="1.0" stroke="none" fill="#ffffff" name="Boo"/>
<circle cx="255.6" cy="245.3" r="1.4" stroke="none" fill="#ffffff" name="Boo"/>
<circle cx="253.3" cy="340.2" r="1.0" stroke="none" fill="#ffffff" name="Boo"/>
<circle cx="253.2" cy="152.7" r="2.0" stroke="none" fill="#ffffff" name="Boo"/>
<circle cx="243.0" cy="252.7" r="1.0" stroke="none" fill="#ffffff" name="Boo"/>
<circle cx="227.4" cy="82.8" r="1.0" stroke="none" fill="#ffffff" name="Boo"/>
<circle cx="213.7" cy="407.6" r="1.0" stroke="none" fill="#ffffff" name="Boo"/>
<circle cx="213.7" cy="407.6" r="1.0" stroke="none" fill="#ffffff" name="Boo"/>
<circle cx="211.3" cy="438.1" r="1.0" stroke="none" fill="#ffffff" name="Boo"/>
<circle cx="211.3" cy="438.1" r="1.0" stroke="none" fill="#ffffff" name="Boo"/>
<circle cx="208.2" cy="500.0" r="1.0" stroke="none" fill="#ffffff" name="Boo"/>
<circle cx="208.2" cy="461.3" r="1.0" stroke="none" fill="#ffffff" name="Boo"/>
<circle cx="203.2" cy="290.2" r="1.0" stroke="none" fill="#ffffff" name="Boo"/>
<circle cx="191.7" cy="401.1" r="1.0" stroke="none" fill="#ffffff" name="Boo"/>
<circle cx="196.3" cy="283.7" r="1.0" stroke="none" fill="#ffffff" name="Boo"/>
<circle cx="196.3" cy="283.7" r="2.3" stroke="none" fill="#ffffff" name="Boo"/>
<circle cx="190.7" cy="63.1" r="1.0" stroke="none" fill="#ffffff" name="Boo"/>
<circle cx="191.9" cy="34.1" r="1.0" stroke="none" fill="#ffffff" name="Boo"/>
<circle cx="162.7" cy="376.1" r="1.0" stroke="none" fill="#ffffff" name="Boo"/>
<circle cx="144.4" cy="140.2" r="1.0" stroke="none" fill="#ffffff" name="Boo"/>
<circle cx="116.5" cy="306.1" r="1.0" stroke="none" fill="#ffffff" name="Boo"/>
<circle cx="136.9" cy="127.0" r="1.5" stroke="none" fill="#ffffff" name="Boo"/>
<circle cx="108.0" cy="283.1" r="1.0" stroke="none" fill="#ffffff" name="Boo"/>
<circle cx="142.6" cy="44.7" r="1.0" stroke="none" fill="#ffffff" name="Boo"/>
<circle cx="138.0" cy="38.9" r="1.0" stroke="none" fill="#ffffff" name="Boo"/>
<circle cx="92.5" cy="306.9" r="1.0" stroke="none" fill="#ffffff" name="Boo"/>
<circle cx="89.3" cy="290.0" r="1.0" stroke="none" fill="#ffffff" name="Boo"/>
<circle cx="66.4" cy="255.3" r="1.0" stroke="none" fill="#ffffff" name="Boo"/>
<circle cx="69.6" cy="206.7" r="1.5" stroke="none" fill="#ffffff" name="Boo"/>
<circle cx="42.3" cy="209.7" r="1.0" stroke="none" fill="#ffffff" name="Boo"/>
<circle cx="42.2" cy="157.5" r="1.0" stroke="none" fill="#ffffff" name="Boo"/>
<circle cx="42.1" cy="157.9" r="1.0" stroke="none" fill="#ffffff" name="Boo"/>
<circle cx="27.5" cy="116.3" r="1.0" stroke="none" fill="#ffffff" name="Boo"/>
<circle cx="24.5" cy="115.3" r="1.0" stroke="none" fill="#ffffff" name="Boo"/>
<circle cx="0.0" cy="119.8" r="1.0" stroke="none" fill="#ffffff" name="Boo"/>
</svg>
