<?xml version="1.0" encoding="utf-8"?>
<svg xmlns="http://www.w3.org/2000/svg"
     xmlns:xlink="http://www.w3.org/1999/xlink"
     width="540" height="540" style="background: #000000">
<circle cx="480.0" cy="333.5" r="1.0" stroke="none" fill="#ffffff" name="Lyr"/>
<circle cx="433.8" cy="233.7" r="1.0" stroke="none" fill="#ffffff" name="Lyr"/>
<circle cx="335.3" cy="259.3" r="5.0" stroke="none" fill="#ffffff" name="Lyr"/>
<circle cx="275.7" cy="234.3" r="1.0" stroke="none" fill="#ffffff" name="Lyr"/>
<circle cx="275.7" cy="234.2" r="1.0" stroke="none" fill="#ffffff" name="Lyr"/>
<circle cx="275.4" cy="236.0" r="1.0" stroke="none" fill="#ffffff" name="Lyr"/>
<circle cx="275.4" cy="236.0" r="1.0" stroke="none" fill="#ffffff" name="Lyr"/>
<circle cx="273.9" cy="295.5" r="1.0" stroke="none" fill="#ffffff" name="Lyr"/>
<circle cx="273.7" cy="295.9" r="1.0" stroke="none" fill="#ffffff" name="Lyr"/>
<circle cx="234.7" cy="438.0" r="1.0" stroke="none" fill="#ffffff" name="Lyr"/>
<circle cx="233.8" cy="445.7" r="1.0" stroke="none" fill="#ffffff" name="Lyr"/>
<circle cx="231.9" cy="421.7" r="1.5" stroke="none" fill="#ffffff" name="Lyr"/>
<circle cx="201.4" cy="314.7" r="1.0" stroke="none" fill="#ffffff" name="Lyr"/>
<circle cx="195.0" cy="316.9" r="1.0" stroke="none" fill="#ffffff" name="Lyr"/>
<circle cx="190.9" cy="108.2" r="1.0" stroke="none" fill="#ffffff" name="Lyr"/>
<circle cx="155.8" cy="441.3" r="1.8" stroke="none" fill="#ffffff" name="Lyr"/>
<circle cx="146.2" cy="457.2" r="1.0" stroke="none" fill="#ffffff" name="Lyr"/>
<circle cx="149.5" cy="20.0" r="1.0" stroke="none" fill="#ffffff" name="Lyr"/>
<circle cx="82.7" cy="445.3" r="1.0" stroke="none" fill="#ffffff" name="Lyr"/>
<circle cx="89.3" cy="338.8" r="1.0" stroke="none" fill="#ffffff" name="Lyr"/>
<circle cx="43.2" cy="480.0" r="1.0" stroke="none" fill="#ffffff" name="Lyr"/>
<circle cx="43.3" cy="246.7" r="1.0" stroke="none" fill="#ffffff" name="Lyr"/>
<circle cx="20.0" cy="275.8" r="1.0" stroke="none" fill="#ffffff" name="Lyr"/>
</svg>
