<?xml version="1.0" encoding="utf-8"?>
<svg xmlns="http://www.w3.org/2000/svg"
xmlns:xlink="http://www.w3.org/1999/xlink"
width="500" height="500" style="background: #000000">
<circle cx="520.0" cy="250.7" r="1.8" stroke="none" fill="#ffffff" name="Ori"/>
<circle cx="514.4" cy="216.5" r="1.0" stroke="none" fill="#ffffff" name="Ori"/>
<circle cx="512.9" cy="274.7" r="1.3" stroke="none" fill="#ffffff" name="Ori"/>
<circle cx="499.0" cy="122.9" r="1.0" stroke="none" fill="#ffffff" name="Ori"/>
<circle cx="501.4" cy="329.5" r="1.0" stroke="none" fill="#ffffff" name="Ori"/>
<circle cx="496.4" cy="330.8" r="1.3" stroke="none" fill="#ffffff" name="Ori"/>
<circle cx="489.0" cy="172.4" r="1.0" stroke="none" fill="#ffffff" name="Ori"/>
<circle cx="489.3" cy="194.8" r="1.0" stroke="none" fill="#ffffff" name="Ori"/>
<circle cx="478.3" cy="136.0" r="1.0" stroke="none" fill="#ffffff" name="Ori"/>
<circle cx="471.8" cy="343.9" r="1.0" stroke="none" fill="#ffffff" name="Ori"/>
<circle cx="431.0" cy="103.5" r="1.0" stroke="none" fill="#ffffff" name="Ori"/>
<circle cx="417.3" cy="207.5" r="1.0" stroke="none" fill="#ffffff" name="Ori"/>
<circle cx="416.3" cy="224.7" r="1.0" stroke="none" fill="#ffffff" name="Ori"/>
<circle cx="407.5" cy="201.3" r="1.0" stroke="none" fill="#ffffff" name="Ori"/>
<circle cx="402.2" cy="100.4" r="1.0" stroke="none" fill="#ffffff" name="Ori"/>
<circle cx="386.5" cy="324.4" r="1.0" stroke="none" fill="#ffffff" name="Ori"/>
<circle cx="378.3" cy="510.7" r="4.9" stroke="none" fill="#ffffff" name="Ori"/>
<circle cx="368.5" cy="175.0" r="1.0" stroke="none" fill="#ffffff" name="Ori"/>
<circle cx="361.2" cy="465.1" r="1.4" stroke="none" fill="#ffffff" name="Ori"/>
<circle cx="352.3" cy="329.3" r="1.0" stroke="none" fill="#ffffff" name="Ori"/>
<circle cx="337.4" cy="368.3" r="1.0" stroke="none" fill="#ffffff" name="Ori"/>
<circle cx="331.0" cy="312.6" r="1.0" stroke="none" fill="#ffffff" name="Ori"/>
<circle cx="324.3" cy="483.2" r="1.0" stroke="none" fill="#ffffff" name="Ori"/>
<circle cx="321.6" cy="359.4" r="1.0" stroke="none" fill="#ffffff" name="Ori"/>
<circle cx="321.6" cy="403.2" r="1.6" stroke="none" fill="#ffffff" name="Ori"/>
<circle cx="320.0" cy="342.6" r="1.0" stroke="none" fill="#ffffff" name="Ori"/>
<circle cx="317.5" cy="263.1" r="3.4" stroke="none" fill="#ffffff" name="Ori"/>
<circle cx="307.8" cy="320.6" r="1.0" stroke="none" fill="#ffffff" name="Ori"/>
<circle cx="291.0" cy="391.1" r="1.0" stroke="none" fill="#ffffff" name="Ori"/>
<circle cx="284.7" cy="270.3" r="1.0" stroke="none" fill="#ffffff" name="Ori"/>
<circle cx="282.2" cy="317.2" r="1.0" stroke="none" fill="#ffffff" name="Ori"/>
<circle cx="277.7" cy="370.2" r="1.0" stroke="none" fill="#ffffff" name="Ori"/>
<circle cx="277.7" cy="369.9" r="2.8" stroke="none" fill="#ffffff" name="Ori"/>
<circle cx="278.1" cy="492.1" r="1.0" stroke="none" fill="#ffffff" name="Ori"/>
<circle cx="266.6" cy="123.4" r="1.0" stroke="none" fill="#ffffff" name="Ori"/>
<circle cx="264.5" cy="308.8" r="1.0" stroke="none" fill="#ffffff" name="Ori"/>
<circle cx="261.4" cy="207.8" r="1.0" stroke="none" fill="#ffffff" name="Ori"/>
<circle cx="259.5" cy="200.0" r="1.5" stroke="none" fill="#ffffff" name="Ori"/>
<circle cx="259.5" cy="200.0" r="1.0" stroke="none" fill="#ffffff" name="Ori"/>
<circle cx="258.0" cy="430.6" r="1.0" stroke="none" fill="#ffffff" name="Ori"/>
<circle cx="258.8" cy="455.9" r="1.0" stroke="none" fill="#ffffff" name="Ori"/>
<circle cx="258.7" cy="455.9" r="1.0" stroke="none" fill="#ffffff" name="Ori"/>
<circle cx="258.7" cy="455.8" r="1.0" stroke="none" fill="#ffffff" name="Ori"/>
<circle cx="258.6" cy="455.9" r="1.0" stroke="none" fill="#ffffff" name="Ori"/>
<circle cx="258.1" cy="455.4" r="1.0" stroke="none" fill="#ffffff" name="Ori"/>
<circle cx="257.8" cy="446.8" r="2.2" stroke="none" fill="#ffffff" name="Ori"/>
<circle cx="256.5" cy="430.3" r="1.0" stroke="none" fill="#ffffff" name="Ori"/>
<circle cx="253.2" cy="389.2" r="3.3" stroke="none" fill="#ffffff" name="Ori"/>
<circle cx="249.4" cy="211.3" r="1.0" stroke="none" fill="#ffffff" name="Ori"/>
<circle cx="238.4" cy="399.7" r="1.2" stroke="none" fill="#ffffff" name="Ori"/>
<circle cx="236.0" cy="302.5" r="1.0" stroke="none" fill="#ffffff" name="Ori"/>
<circle cx="237.8" cy="493.6" r="1.0" stroke="none" fill="#ffffff" name="Ori"/>
<circle cx="226.7" cy="376.1" r="3.0" stroke="none" fill="#ffffff" name="Ori"/>
<circle cx="226.7" cy="376.1" r="1.0" stroke="none" fill="#ffffff" name="Ori"/>
<circle cx="216.7" cy="349.2" r="1.0" stroke="none" fill="#ffffff" name="Ori"/>
<circle cx="185.0" cy="261.2" r="1.0" stroke="none" fill="#ffffff" name="Ori"/>
<circle cx="186.8" cy="520.0" r="2.9" stroke="none" fill="#ffffff" name="Ori"/>
<circle cx="165.6" cy="488.1" r="1.0" stroke="none" fill="#ffffff" name="Ori"/>
<circle cx="158.8" cy="342.2" r="1.0" stroke="none" fill="#ffffff" name="Ori"/>
<circle cx="154.7" cy="20.0" r="1.0" stroke="none" fill="#ffffff" name="Ori"/>
<circle cx="151.3" cy="29.0" r="1.0" stroke="none" fill="#ffffff" name="Ori"/>
<circle cx="143.9" cy="244.1" r="4.5" stroke="none" fill="#ffffff" name="Ori"/>
<circle cx="124.2" cy="342.3" r="1.0" stroke="none" fill="#ffffff" name="Ori"/>
<circle cx="121.7" cy="364.9" r="1.0" stroke="none" fill="#ffffff" name="Ori"/>
<circle cx="103.4" cy="204.4" r="1.0" stroke="none" fill="#ffffff" name="Ori"/>
<circle cx="104.8" cy="29.6" r="1.0" stroke="none" fill="#ffffff" name="Ori"/>
<circle cx="102.7" cy="22.0" r="1.0" stroke="none" fill="#ffffff" name="Ori"/>
<circle cx="86.9" cy="278.8" r="1.0" stroke="none" fill="#ffffff" name="Ori"/>
<circle cx="86.6" cy="301.0" r="1.0" stroke="none" fill="#ffffff" name="Ori"/>
<circle cx="77.5" cy="114.4" r="1.0" stroke="none" fill="#ffffff" name="Ori"/>
<circle cx="58.4" cy="27.4" r="1.0" stroke="none" fill="#ffffff" name="Ori"/>
<circle cx="53.9" cy="90.4" r="1.0" stroke="none" fill="#ffffff" name="Ori"/>
<circle cx="52.6" cy="123.9" r="1.0" stroke="none" fill="#ffffff" name="Ori"/>
<circle cx="42.3" cy="38.1" r="1.0" stroke="none" fill="#ffffff" name="Ori"/>
<circle cx="35.4" cy="90.0" r="1.0" stroke="none" fill="#ffffff" name="Ori"/>
<circle cx="29.8" cy="152.6" r="1.0" stroke="none" fill="#ffffff" name="Ori"/>
<circle cx="25.7" cy="157.4" r="1.0" stroke="none" fill="#ffffff" name="Ori"/>
<circle cx="20.0" cy="198.3" r="1.0" stroke="none" fill="#ffffff" name="Ori"/>
</svg>
