<?xml version="1.0" encoding="utf-8" ?>
<svg baseProfile="full" height="100%" version="1.1" width="100%" xmlns="http://www.w3.org/2000/svg" xmlns:ev="http://www.w3.org/2001/xml-events" xmlns:xlink="http://www.w3.org/1999/xlink"><defs /><rect fill="black" height="1200" width="1200" x="0" y="0" /><circle cx="529.4091357788091" cy="323.26598741846" fill="#FFFFFF" r="1" stroke="none" /><circle cx="524.7308284128143" cy="390.3621585530902" fill="#FFFFFF" r="2.31" stroke="none" /><circle cx="504.4671715973628" cy="306.152101992533" fill="#e4e4ed" r="1" stroke="none" /><circle cx="496.8630324201628" cy="279.42271909933953" fill="#e4e4ed" r="1" stroke="none" /><circle cx="495.8622957692825" cy="274.7337110695904" fill="#fcfcfc" r="1" stroke="none" /><circle cx="478.7512590024781" cy="199.81423368950945" fill="#000dff" r="2.01" stroke="none" /><circle cx="485.26522961787356" cy="250.09076265988128" fill="#6e72ba" r="1.25" stroke="none" /><circle cx="441.61327888307375" cy="61.925669296232165" fill="#e4e4ed" r="1" stroke="none" /><circle cx="472.302653273179" cy="249.43389718832077" fill="#6e72ba" r="1.83" stroke="none" /><circle cx="456.9887328494728" cy="303.23975276060406" fill="#e4e4ed" r="1" stroke="none" /><circle cx="461.988142054811" cy="410.06378005478007" fill="#e4e4ed" r="1" stroke="none" /><circle cx="429.69203785250886" cy="167.2710696730466" fill="#6e72ba" r="4.92" stroke="none" /><circle cx="451.06719578495074" cy="398.95992598318395" fill="#6e72ba" r="1" stroke="none" /><circle cx="449.89435839897607" cy="391.8122976373081" fill="#e4e4ed" r="1" stroke="none" /><circle cx="435.1485899703073" cy="276.23666288487203" fill="#6e72ba" r="1" stroke="none" /><circle cx="445.7706928968748" cy="388.32350348357505" fill="#e4e4ed" r="1" stroke="none" /><circle cx="443.66219317723653" cy="389.1046948885448" fill="#6e72ba" r="1" stroke="none" /><circle cx="423.346695637152" cy="246.0150443087213" fill="#6e72ba" r="1" stroke="none" /><circle cx="439.33317873792845" cy="481.7518235489503" fill="#e4e4ed" r="1" stroke="none" /><circle cx="422.1069589947872" cy="328.25523408139344" fill="#6e72ba" r="1" stroke="none" /><circle cx="416.37638706199755" cy="382.723474044127" fill="#e4e4ed" r="1" stroke="none" /><circle cx="401.40454300431077" cy="426.19062139223774" fill="#e4e4ed" r="1" stroke="none" /><circle cx="381.78004282779" cy="458.8290486260329" fill="#fcfcfc" r="1" stroke="none" /><circle cx="340.93922609966063" cy="105.20064875549163" fill="#fcfcfc" r="1" stroke="none" /><circle cx="338.76133883793267" cy="301.3437041294029" fill="#6e72ba" r="1" stroke="none" /><circle cx="333.5192153613397" cy="336.1731495253893" fill="#6e72ba" r="1" stroke="none" /><circle cx="331.1554579140473" cy="302.2041631189372" fill="#000dff" r="1.0299999999999998" stroke="none" /><circle cx="314.1331991870982" cy="0.0" fill="#6e72ba" r="1" stroke="none" /><circle cx="303.0905514184596" cy="25.567797098021707" fill="#6e72ba" r="1.2799999999999998" stroke="none" /><circle cx="304.1037797662814" cy="195.63810798631891" fill="#000dff" r="3.1" stroke="none" /><circle cx="302.80032832654604" cy="177.4359009619015" fill="#000dff" r="1" stroke="none" /><circle cx="304.17642371413865" cy="338.4373513397182" fill="#6e72ba" r="2.38" stroke="none" /><circle cx="299.66885224365456" cy="141.37999430268528" fill="#e4e4ed" r="1" stroke="none" /><circle cx="292.5605656001723" cy="233.17870414770715" fill="#e4e4ed" r="1" stroke="none" /><circle cx="287.10315011469265" cy="231.8410901563272" fill="#e4e4ed" r="1" stroke="none" /><circle cx="281.2333758685301" cy="314.87058749952814" fill="#e4e4ed" r="1" stroke="none" /><circle cx="269.8285018200267" cy="126.0960629104878" fill="#fcfcfc" r="1" stroke="none" /><circle cx="269.8227300440608" cy="126.13144365679679" fill="#fcfcfc" r="1" stroke="none" /><circle cx="246.81205871511497" cy="478.7302737863193" fill="#fcfcfc" r="1" stroke="none" /><circle cx="251.0879097396115" cy="167.32318752744217" fill="#fcfcfc" r="1" stroke="none" /><circle cx="248.97434636701604" cy="168.38638426039836" fill="#fcfcfc" r="1" stroke="none" /><circle cx="246.93788641188664" cy="38.9353519721527" fill="#fcfcfc" r="1" stroke="none" /><circle cx="233.40115869399364" cy="113.70127237763155" fill="#fcfcfc" r="1" stroke="none" /><circle cx="199.19905608313886" cy="457.6182003376266" fill="#fcfcfc" r="1" stroke="none" /><circle cx="215.11401598131334" cy="160.03692400554746" fill="#fcfcfc" r="1" stroke="none" /><circle cx="172.09714325535091" cy="500.0" fill="#fcfcfc" r="1" stroke="none" /><circle cx="176.58974205642463" cy="291.2718178446318" fill="#fcfcfc" r="1" stroke="none" /><circle cx="176.9666920888751" cy="281.80980213514124" fill="#fcfcfc" r="1" stroke="none" /><circle cx="161.54897753052992" cy="481.3855000496642" fill="#fcfcfc" r="1" stroke="none" /><circle cx="180.08585338413357" cy="234.11673665113187" fill="#6e72ba" r="1" stroke="none" /><circle cx="156.28943573802135" cy="493.8773830460804" fill="#fcfcfc" r="1" stroke="none" /><circle cx="172.80421152296742" cy="195.41421568075012" fill="#fcfcfc" r="1" stroke="none" /><circle cx="159.72486486218796" cy="211.25236093328377" fill="#e4e4ed" r="1" stroke="none" /><circle cx="169.7450374026329" cy="116.00180775796225" fill="#e4e4ed" r="1" stroke="none" /><circle cx="143.1639940788763" cy="242.28712916542705" fill="#e4e4ed" r="1" stroke="none" /><circle cx="129.02064674603048" cy="294.4222190162019" fill="#e4e4ed" r="1" stroke="none" /><circle cx="127.35501103841173" cy="302.19938696004" fill="#e4e4ed" r="1" stroke="none" /><circle cx="125.15801363135299" cy="300.59241730468074" fill="#e4e4ed" r="1" stroke="none" /><circle cx="137.96952189503753" cy="157.63596835067685" fill="#e4e4ed" r="1" stroke="none" /><circle cx="107.50026046309252" cy="306.01159411194527" fill="#e4e4ed" r="1" stroke="none" /><circle cx="70.98542857781919" cy="274.861251319257" fill="#e4e4ed" r="1" stroke="none" /><circle cx="56.676186915055546" cy="242.00733851060951" fill="#e4e4ed" r="1" stroke="none" /><circle cx="29.40913577880905" cy="313.20534669758337" fill="#6e72ba" r="1" stroke="none" /><circle cx="37.39608375013881" cy="241.1033690842298" fill="#6e72ba" r="1" stroke="none" /></svg>