<?xml version="1.0" encoding="utf-8"?>
<svg xmlns="http://www.w3.org/2000/svg"
xmlns:xlink="http://www.w3.org/1999/xlink"
width="500" height="500" style="background: #000000">
<circle cx="500.0" cy="230.7" r="1.8" stroke="none" fill="#ffffff" name="Ori"/>
<circle cx="494.4" cy="196.5" r="1.0" stroke="none" fill="#ffffff" name="Ori"/>
<circle cx="492.9" cy="254.7" r="1.3" stroke="none" fill="#ffffff" name="Ori"/>
<circle cx="479.0" cy="102.9" r="1.0" stroke="none" fill="#ffffff" name="Ori"/>
<circle cx="481.4" cy="309.5" r="1.0" stroke="none" fill="#ffffff" name="Ori"/>
<circle cx="476.4" cy="310.8" r="1.3" stroke="none" fill="#ffffff" name="Ori"/>
<circle cx="469.0" cy="152.4" r="1.0" stroke="none" fill="#ffffff" name="Ori"/>
<circle cx="469.3" cy="174.8" r="1.0" stroke="none" fill="#ffffff" name="Ori"/>
<circle cx="458.3" cy="116.0" r="1.0" stroke="none" fill="#ffffff" name="Ori"/>
<circle cx="451.8" cy="323.9" r="1.0" stroke="none" fill="#ffffff" name="Ori"/>
<circle cx="411.0" cy="83.5" r="1.0" stroke="none" fill="#ffffff" name="Ori"/>
<circle cx="397.3" cy="187.5" r="1.0" stroke="none" fill="#ffffff" name="Ori"/>
<circle cx="396.3" cy="204.7" r="1.0" stroke="none" fill="#ffffff" name="Ori"/>
<circle cx="387.5" cy="181.3" r="1.0" stroke="none" fill="#ffffff" name="Ori"/>
<circle cx="382.2" cy="80.4" r="1.0" stroke="none" fill="#ffffff" name="Ori"/>
<circle cx="366.5" cy="304.4" r="1.0" stroke="none" fill="#ffffff" name="Ori"/>
<circle cx="358.3" cy="490.7" r="4.9" stroke="none" fill="#ffffff" name="Ori"/>
<circle cx="348.5" cy="155.0" r="1.0" stroke="none" fill="#ffffff" name="Ori"/>
<circle cx="341.2" cy="445.1" r="1.4" stroke="none" fill="#ffffff" name="Ori"/>
<circle cx="332.3" cy="309.3" r="1.0" stroke="none" fill="#ffffff" name="Ori"/>
<circle cx="317.4" cy="348.3" r="1.0" stroke="none" fill="#ffffff" name="Ori"/>
<circle cx="311.0" cy="292.6" r="1.0" stroke="none" fill="#ffffff" name="Ori"/>
<circle cx="304.3" cy="463.2" r="1.0" stroke="none" fill="#ffffff" name="Ori"/>
<circle cx="301.6" cy="339.4" r="1.0" stroke="none" fill="#ffffff" name="Ori"/>
<circle cx="301.6" cy="383.2" r="1.6" stroke="none" fill="#ffffff" name="Ori"/>
<circle cx="300.0" cy="322.6" r="1.0" stroke="none" fill="#ffffff" name="Ori"/>
<circle cx="297.5" cy="243.1" r="3.4" stroke="none" fill="#ffffff" name="Ori"/>
<circle cx="287.8" cy="300.6" r="1.0" stroke="none" fill="#ffffff" name="Ori"/>
<circle cx="271.0" cy="371.1" r="1.0" stroke="none" fill="#ffffff" name="Ori"/>
<circle cx="264.7" cy="250.3" r="1.0" stroke="none" fill="#ffffff" name="Ori"/>
<circle cx="262.2" cy="297.2" r="1.0" stroke="none" fill="#ffffff" name="Ori"/>
<circle cx="257.7" cy="350.2" r="1.0" stroke="none" fill="#ffffff" name="Ori"/>
<circle cx="257.7" cy="349.9" r="2.8" stroke="none" fill="#ffffff" name="Ori"/>
<circle cx="258.1" cy="472.1" r="1.0" stroke="none" fill="#ffffff" name="Ori"/>
<circle cx="246.6" cy="103.4" r="1.0" stroke="none" fill="#ffffff" name="Ori"/>
<circle cx="244.5" cy="288.8" r="1.0" stroke="none" fill="#ffffff" name="Ori"/>
<circle cx="241.4" cy="187.8" r="1.0" stroke="none" fill="#ffffff" name="Ori"/>
<circle cx="239.5" cy="180.0" r="1.5" stroke="none" fill="#ffffff" name="Ori"/>
<circle cx="239.5" cy="180.0" r="1.0" stroke="none" fill="#ffffff" name="Ori"/>
<circle cx="238.0" cy="410.6" r="1.0" stroke="none" fill="#ffffff" name="Ori"/>
<circle cx="238.8" cy="435.9" r="1.0" stroke="none" fill="#ffffff" name="Ori"/>
<circle cx="238.7" cy="435.9" r="1.0" stroke="none" fill="#ffffff" name="Ori"/>
<circle cx="238.7" cy="435.8" r="1.0" stroke="none" fill="#ffffff" name="Ori"/>
<circle cx="238.6" cy="435.9" r="1.0" stroke="none" fill="#ffffff" name="Ori"/>
<circle cx="238.1" cy="435.4" r="1.0" stroke="none" fill="#ffffff" name="Ori"/>
<circle cx="237.8" cy="426.8" r="2.2" stroke="none" fill="#ffffff" name="Ori"/>
<circle cx="236.5" cy="410.3" r="1.0" stroke="none" fill="#ffffff" name="Ori"/>
<circle cx="233.2" cy="369.2" r="3.3" stroke="none" fill="#ffffff" name="Ori"/>
<circle cx="229.4" cy="191.3" r="1.0" stroke="none" fill="#ffffff" name="Ori"/>
<circle cx="218.4" cy="379.7" r="1.2" stroke="none" fill="#ffffff" name="Ori"/>
<circle cx="216.0" cy="282.5" r="1.0" stroke="none" fill="#ffffff" name="Ori"/>
<circle cx="217.8" cy="473.6" r="1.0" stroke="none" fill="#ffffff" name="Ori"/>
<circle cx="206.7" cy="356.1" r="3.0" stroke="none" fill="#ffffff" name="Ori"/>
<circle cx="206.7" cy="356.1" r="1.0" stroke="none" fill="#ffffff" name="Ori"/>
<circle cx="196.7" cy="329.2" r="1.0" stroke="none" fill="#ffffff" name="Ori"/>
<circle cx="165.0" cy="241.2" r="1.0" stroke="none" fill="#ffffff" name="Ori"/>
<circle cx="166.8" cy="500.0" r="2.9" stroke="none" fill="#ffffff" name="Ori"/>
<circle cx="145.6" cy="468.1" r="1.0" stroke="none" fill="#ffffff" name="Ori"/>
<circle cx="138.8" cy="322.2" r="1.0" stroke="none" fill="#ffffff" name="Ori"/>
<circle cx="134.7" cy="0.0" r="1.0" stroke="none" fill="#ffffff" name="Ori"/>
<circle cx="131.3" cy="9.0" r="1.0" stroke="none" fill="#ffffff" name="Ori"/>
<circle cx="123.9" cy="224.1" r="4.5" stroke="none" fill="#ffffff" name="Ori"/>
<circle cx="104.2" cy="322.3" r="1.0" stroke="none" fill="#ffffff" name="Ori"/>
<circle cx="101.7" cy="344.9" r="1.0" stroke="none" fill="#ffffff" name="Ori"/>
<circle cx="83.4" cy="184.4" r="1.0" stroke="none" fill="#ffffff" name="Ori"/>
<circle cx="84.8" cy="9.6" r="1.0" stroke="none" fill="#ffffff" name="Ori"/>
<circle cx="82.7" cy="2.0" r="1.0" stroke="none" fill="#ffffff" name="Ori"/>
<circle cx="66.9" cy="258.8" r="1.0" stroke="none" fill="#ffffff" name="Ori"/>
<circle cx="66.6" cy="281.0" r="1.0" stroke="none" fill="#ffffff" name="Ori"/>
<circle cx="57.5" cy="94.4" r="1.0" stroke="none" fill="#ffffff" name="Ori"/>
<circle cx="38.4" cy="7.4" r="1.0" stroke="none" fill="#ffffff" name="Ori"/>
<circle cx="33.9" cy="70.4" r="1.0" stroke="none" fill="#ffffff" name="Ori"/>
<circle cx="32.6" cy="103.9" r="1.0" stroke="none" fill="#ffffff" name="Ori"/>
<circle cx="22.3" cy="18.1" r="1.0" stroke="none" fill="#ffffff" name="Ori"/>
<circle cx="15.4" cy="70.0" r="1.0" stroke="none" fill="#ffffff" name="Ori"/>
<circle cx="9.8" cy="132.6" r="1.0" stroke="none" fill="#ffffff" name="Ori"/>
<circle cx="5.7" cy="137.4" r="1.0" stroke="none" fill="#ffffff" name="Ori"/>
<circle cx="0.0" cy="178.3" r="1.0" stroke="none" fill="#ffffff" name="Ori"/>
</svg>
