<?xml version="1.0" encoding="utf-8" ?>
<svg baseProfile="full" height="100%" version="1.1" width="100%" xmlns="http://www.w3.org/2000/svg" xmlns:ev="http://www.w3.org/2001/xml-events" xmlns:xlink="http://www.w3.org/1999/xlink"><defs /><rect fill="black" height="2000" width="2000" x="0" y="0" /><circle cx="513.537403807963" cy="52.03687328182133" fill="#c0cfff" r="1" stroke="none" /><circle cx="524.1550032511403" cy="313.6005441975097" fill="#cfffff" r="1" stroke="none" /><circle cx="524.6176701740092" cy="326.9018081611705" fill="#cfffff" r="1" stroke="none" /><circle cx="497.6032009354784" cy="101.894465788623" fill="#c0cfff" r="1" stroke="none" /><circle cx="512.0128632207443" cy="304.3759259614317" fill="#cfffff" r="1" stroke="none" /><circle cx="510.8858592563749" cy="280.08072431900433" fill="#cfffff" r="1" stroke="none" /><circle cx="495.1273438724527" cy="233.73981925058175" fill="#cfffff" r="1" stroke="none" /><circle cx="489.2251626270147" cy="202.45182760037622" fill="#cfffff" r="1" stroke="none" /><circle cx="495.9525653678394" cy="349.69192446293215" fill="#cfffff" r="1" stroke="none" /><circle cx="480.9998229405185" cy="303.7600753341788" fill="#cfffff" r="1.48" stroke="none" /><circle cx="462.1680763333519" cy="59.761960241027644" fill="#cfffff" r="1" stroke="none" /><circle cx="449.8168866583992" cy="0.0" fill="#cfffff" r="1" stroke="none" /><circle cx="469.3776307454828" cy="240.9000688061027" fill="#cfffff" r="1" stroke="none" /><circle cx="452.0558330111474" cy="92.62933448339372" fill="#c0cfff" r="2.02" stroke="none" /><circle cx="462.0857498952639" cy="275.37804630982856" fill="#cfffff" r="1" stroke="none" /><circle cx="458.7148997615186" cy="279.2862729395006" fill="#cfffff" r="1" stroke="none" /><circle cx="442.44213083528035" cy="132.58582916638844" fill="#cfffff" r="1" stroke="none" /><circle cx="445.5708417825931" cy="256.9313314931369" fill="#cfffff" r="1" stroke="none" /><circle cx="432.2363648318178" cy="84.3031757708334" fill="#cfffff" r="1" stroke="none" /><circle cx="427.5153462615324" cy="60.2741436442753" fill="#cfffff" r="1.12" stroke="none" /><circle cx="421.5650075886577" cy="267.63267793703017" fill="#cfffff" r="1" stroke="none" /><circle cx="416.64242347242663" cy="335.4598936286929" fill="#cfffff" r="1" stroke="none" /><circle cx="388.3331200036436" cy="202.50961711637504" fill="#cfffff" r="1.48" stroke="none" /><circle cx="389.39266044445833" cy="306.4924816940821" fill="#c0cfff" r="1" stroke="none" /><circle cx="387.07525872072523" cy="276.2864261829473" fill="#c0cfff" r="3.65" stroke="none" /><circle cx="375.3409433944753" cy="255.2984815871846" fill="#cfffff" r="1" stroke="none" /><circle cx="354.141707463027" cy="100.6655557063822" fill="#cfffff" r="1" stroke="none" /><circle cx="353.6980145974046" cy="101.97419245097377" fill="#cfffff" r="1.56" stroke="none" /><circle cx="357.9467550440104" cy="250.01212045329478" fill="#cfffff" r="1" stroke="none" /><circle cx="352.0711949692789" cy="106.72021528708164" fill="#c0cfff" r="1" stroke="none" /><circle cx="345.5396872981883" cy="162.1754819201332" fill="#c0cfff" r="1" stroke="none" /><circle cx="344.6068962811637" cy="156.52972224119716" fill="#cfffff" r="2.39" stroke="none" /><circle cx="344.5907316789027" cy="156.54701124669378" fill="#cfffff" r="1.2000000000000002" stroke="none" /><circle cx="339.9321303773061" cy="231.20967911751507" fill="#cfffff" r="1" stroke="none" /><circle cx="337.4800299882921" cy="360.7343341730156" fill="#cfffff" r="1" stroke="none" /><circle cx="329.33954593988625" cy="326.5269644742581" fill="#cfffff" r="1" stroke="none" /><circle cx="320.85327072943335" cy="311.6324448610535" fill="#c0cfff" r="1" stroke="none" /><circle cx="304.6233176608643" cy="244.53774715327404" fill="#c0cfff" r="1" stroke="none" /><circle cx="302.8754992659376" cy="318.79325078309387" fill="#cfffff" r="1.15" stroke="none" /><circle cx="296.0093646350945" cy="354.8845190485399" fill="#cfffff" r="1" stroke="none" /><circle cx="295.1235965431434" cy="328.9029766959655" fill="#cfffff" r="1" stroke="none" /><circle cx="256.45005827666176" cy="171.57329186769664" fill="#cfffff" r="1" stroke="none" /><circle cx="255.77647203405624" cy="243.6280171870992" fill="#cfffff" r="1" stroke="none" /><circle cx="245.54400972699315" cy="299.63863725216714" fill="#cfffff" r="1" stroke="none" /><circle cx="227.90536549058464" cy="82.23286012481074" fill="#cfffff" r="1" stroke="none" /><circle cx="227.87826851777365" cy="82.24492258173305" fill="#cfffff" r="1" stroke="none" /><circle cx="222.11859634292657" cy="448.73149812537247" fill="#cfffff" r="1" stroke="none" /><circle cx="221.34379899227397" cy="366.1044569184537" fill="#cfffff" r="1" stroke="none" /><circle cx="205.13693193644716" cy="404.8679327756734" fill="#cfffff" r="1" stroke="none" /><circle cx="204.76492680789744" cy="367.04103029789115" fill="#c0cfff" r="1" stroke="none" /><circle cx="200.54087840526603" cy="481.974592234354" fill="#c0cfff" r="1" stroke="none" /><circle cx="203.84947458117043" cy="151.0239857062493" fill="#c0cfff" r="1" stroke="none" /><circle cx="194.23575922997216" cy="459.16302717833696" fill="#c0cfff" r="1" stroke="none" /><circle cx="190.0421154757338" cy="347.7864835588478" fill="#cfffff" r="1" stroke="none" /><circle cx="182.70567245530816" cy="429.4317463039797" fill="#cfffff" r="1" stroke="none" /><circle cx="188.31134117289238" cy="102.79967963837589" fill="#cfffff" r="1" stroke="none" /><circle cx="185.58386581988927" cy="82.55659816392463" fill="#c0cfff" r="1" stroke="none" /><circle cx="158.59066593471243" cy="456.996296902432" fill="#c0cfff" r="1" stroke="none" /><circle cx="165.27573009682988" cy="144.5691274112561" fill="#c0cfff" r="2.44" stroke="none" /><circle cx="161.41535450885647" cy="222.49252027027543" fill="#c0cfff" r="1.6600000000000001" stroke="none" /><circle cx="163.82820585374003" cy="105.40175752526032" fill="#c0cfff" r="1" stroke="none" /><circle cx="154.73506278174264" cy="254.8743311313315" fill="#c0cfff" r="1" stroke="none" /><circle cx="148.55387082911676" cy="492.6703482685218" fill="#c0cfff" r="1" stroke="none" /><circle cx="146.33042044129485" cy="427.3100298372659" fill="#cfffff" r="1" stroke="none" /><circle cx="140.6280913871692" cy="432.5034091532177" fill="#cfffff" r="1" stroke="none" /><circle cx="133.65733357310967" cy="365.70422067253475" fill="#c0cfff" r="1" stroke="none" /><circle cx="125.80851258554532" cy="296.34648354358507" fill="#cfffff" r="1.06" stroke="none" /><circle cx="122.78948358999342" cy="435.3480646686326" fill="#cfffff" r="1" stroke="none" /><circle cx="124.0408239570479" cy="205.06269712834995" fill="#cfffff" r="1" stroke="none" /><circle cx="116.88677827970018" cy="397.94838635131714" fill="#cfffff" r="1" stroke="none" /><circle cx="113.54975796579741" cy="410.6274871352908" fill="#cfffff" r="1" stroke="none" /><circle cx="109.4390387028551" cy="412.79043068809824" fill="#cfffff" r="1" stroke="none" /><circle cx="109.56224566417482" cy="220.3420180962135" fill="#cfffff" r="1" stroke="none" /><circle cx="101.24962611899136" cy="500.0" fill="#cfffff" r="1" stroke="none" /><circle cx="109.70907324099937" cy="174.31407829398944" fill="#cfffff" r="1" stroke="none" /><circle cx="101.86659892512573" cy="236.055194042733" fill="#cfffff" r="1" stroke="none" /><circle cx="87.31829572922234" cy="408.4536416318419" fill="#cfffff" r="1" stroke="none" /><circle cx="94.22991611512693" cy="198.17968006463872" fill="#cfffff" r="1" stroke="none" /><circle cx="78.19670710974897" cy="441.6549227656032" fill="#c0cfff" r="1" stroke="none" /><circle cx="79.935470206984" cy="127.459347280589" fill="#cfffff" r="1" stroke="none" /><circle cx="55.45425828800099" cy="143.04172787632808" fill="#cfffff" r="1" stroke="none" /><circle cx="44.830312697504205" cy="229.04662432356625" fill="#c0cfff" r="2.86" stroke="none" /><circle cx="24.61767017400912" cy="210.85003433179693" fill="#c0cfff" r="1" stroke="none" /></svg>