<?xml version="1.0" encoding="utf-8" ?>
<svg baseProfile="full" height="100%" version="1.1" width="100%" xmlns="http://www.w3.org/2000/svg" xmlns:ev="http://www.w3.org/2001/xml-events" xmlns:xlink="http://www.w3.org/1999/xlink"><defs /><rect fill="black" height="2000" width="2000" x="0" y="0" /><circle cx="442.4517709605428" cy="230.6753385862439" fill="#6e72ba" r="1.81" stroke="none" /><circle cx="436.8882567827646" cy="196.54710529719415" fill="#6e72ba" r="1" stroke="none" /><circle cx="435.3341895807929" cy="254.7195017469832" fill="#6e72ba" r="1.31" stroke="none" /><circle cx="421.48231065175383" cy="102.861530080881" fill="#6e72ba" r="1" stroke="none" /><circle cx="423.8435134038765" cy="309.5363700151724" fill="#6e72ba" r="1" stroke="none" /><circle cx="418.8580839908174" cy="310.7882502224464" fill="#6e72ba" r="1.2799999999999998" stroke="none" /><circle cx="411.4870305513888" cy="152.42741340222688" fill="#6e72ba" r="1" stroke="none" /><circle cx="411.79097750370727" cy="174.84042205788842" fill="#e4e4ed" r="1" stroke="none" /><circle cx="400.801439647117" cy="115.96554435171963" fill="#000dff" r="1" stroke="none" /><circle cx="394.2718686583275" cy="323.87791300133904" fill="#000dff" r="1" stroke="none" /><circle cx="353.43114009984134" cy="83.51001140314546" fill="#6e72ba" r="1" stroke="none" /><circle cx="339.76065097149444" cy="187.51143058591285" fill="#e4e4ed" r="1" stroke="none" /><circle cx="338.77813706110715" cy="204.67464909688033" fill="#fcfcfc" r="1" stroke="none" /><circle cx="329.96316024551163" cy="181.2936883503043" fill="#e4e4ed" r="1" stroke="none" /><circle cx="324.66693648295177" cy="80.39137449405581" fill="#e4e4ed" r="1" stroke="none" /><circle cx="308.944616885059" cy="304.38487178635364" fill="#e4e4ed" r="1" stroke="none" /><circle cx="300.7966124263754" cy="490.679256136234" fill="#000dff" r="4.88" stroke="none" /><circle cx="290.90197684028885" cy="154.96741302740685" fill="#6e72ba" r="1" stroke="none" /><circle cx="283.63727925113176" cy="445.0863170729316" fill="#000dff" r="1.4" stroke="none" /><circle cx="274.75185687958043" cy="309.25035637436804" fill="#6e72ba" r="1" stroke="none" /><circle cx="259.8579007271836" cy="348.3072089259771" fill="#6e72ba" r="1" stroke="none" /><circle cx="253.49391147979426" cy="292.5977696754437" fill="#e4e4ed" r="1" stroke="none" /><circle cx="246.7883032874279" cy="463.2046580040512" fill="#e4e4ed" r="1" stroke="none" /><circle cx="244.01656623736721" cy="339.4038866948452" fill="#e4e4ed" r="1" stroke="none" /><circle cx="244.03026419713376" cy="383.2352767042146" fill="#e4e4ed" r="1.6400000000000001" stroke="none" /><circle cx="242.45135662077044" cy="322.58458882791444" fill="#fcfcfc" r="1" stroke="none" /><circle cx="239.9114162298815" cy="243.11277021409404" fill="#000dff" r="3.3600000000000003" stroke="none" /><circle cx="230.24275010474403" cy="300.58536311483584" fill="#6e72ba" r="1" stroke="none" /><circle cx="213.4237677677203" cy="371.1034705135289" fill="#6e72ba" r="1" stroke="none" /><circle cx="207.1887289152326" cy="250.2661322083985" fill="#e4e4ed" r="1" stroke="none" /><circle cx="204.60715349188314" cy="297.15536775653305" fill="#fcfcfc" r="1" stroke="none" /><circle cx="200.16744894591903" cy="350.16487313140044" fill="#e4e4ed" r="1" stroke="none" /><circle cx="200.17714614972576" cy="349.9058833154712" fill="#6e72ba" r="2.77" stroke="none" /><circle cx="200.5313794285199" cy="472.05379105619255" fill="#e4e4ed" r="1" stroke="none" /><circle cx="189.0475295296869" cy="103.37927410239162" fill="#e4e4ed" r="1" stroke="none" /><circle cx="186.9361900823554" cy="288.7849935708452" fill="#e4e4ed" r="1" stroke="none" /><circle cx="183.8230854757744" cy="187.81585389589577" fill="#6e72ba" r="1" stroke="none" /><circle cx="181.99960532938834" cy="179.9871427571119" fill="#e4e4ed" r="1.46" stroke="none" /><circle cx="181.98047964711023" cy="179.97247332281563" fill="#fcfcfc" r="1" stroke="none" /><circle cx="180.48551518952704" cy="410.5949930667625" fill="#e4e4ed" r="1" stroke="none" /><circle cx="181.2036558792675" cy="435.8929665262101" fill="#fcfcfc" r="1" stroke="none" /><circle cx="181.18430500154798" cy="435.92678809254113" fill="#fcfcfc" r="1" stroke="none" /><circle cx="181.14553453231287" cy="435.8494562108632" fill="#fcfcfc" r="1" stroke="none" /><circle cx="181.0680830668418" cy="435.883260117993" fill="#fcfcfc" r="1" stroke="none" /><circle cx="180.5255520680178" cy="435.39014775462766" fill="#fcfcfc" r="1" stroke="none" /><circle cx="180.22090540512005" cy="426.7908048345422" fill="#6e72ba" r="2.23" stroke="none" /><circle cx="178.90426761913076" cy="410.2886989714708" fill="#000dff" r="1" stroke="none" /><circle cx="175.65811480026494" cy="369.1916867441527" fill="#000dff" r="3.3" stroke="none" /><circle cx="171.82753714464266" cy="191.3125536819219" fill="#000dff" r="1" stroke="none" /><circle cx="160.89954213203617" cy="379.74101531784044" fill="#fcfcfc" r="1.19" stroke="none" /><circle cx="158.41142728384656" cy="282.5070143145572" fill="#fcfcfc" r="1" stroke="none" /><circle cx="160.27435550637443" cy="473.5656815321256" fill="#fcfcfc" r="1" stroke="none" /><circle cx="149.169154242847" cy="356.14102133929424" fill="#6e72ba" r="2.95" stroke="none" /><circle cx="149.1594431493779" cy="356.14100233941235" fill="#e4e4ed" r="1" stroke="none" /><circle cx="139.17400556039954" cy="329.15452982966207" fill="#e4e4ed" r="1" stroke="none" /><circle cx="107.48826449226468" cy="241.17712405025128" fill="#fcfcfc" r="1" stroke="none" /><circle cx="109.245621306379" cy="500.0" fill="#e4e4ed" r="2.94" stroke="none" /><circle cx="88.0573512934793" cy="468.05903807521474" fill="#fcfcfc" r="1" stroke="none" /><circle cx="81.23814637416172" cy="322.22257692349734" fill="#000dff" r="1" stroke="none" /><circle cx="77.16197578928069" cy="0.0" fill="#000dff" r="1" stroke="none" /><circle cx="73.71544030726606" cy="8.966502733900871" fill="#fcfcfc" r="1" stroke="none" /><circle cx="66.33334924092227" cy="224.146153990428" fill="#000dff" r="4.5" stroke="none" /><circle cx="46.62428692532372" cy="322.3196742129276" fill="#e4e4ed" r="1" stroke="none" /><circle cx="44.1243835399916" cy="344.9142786173555" fill="#6e72ba" r="1" stroke="none" /><circle cx="25.83529934637402" cy="184.35014430007206" fill="#e4e4ed" r="1" stroke="none" /><circle cx="27.24815480810533" cy="9.627877268597928" fill="#fcfcfc" r="1" stroke="none" /><circle cx="25.176069623218055" cy="1.9594009788379552" fill="#fcfcfc" r="1" stroke="none" /><circle cx="9.367203790845158" cy="258.77763202395585" fill="#fcfcfc" r="1" stroke="none" /><circle cx="9.019979123543909" cy="281.0469207177717" fill="#fcfcfc" r="1" stroke="none" /><circle cx="-0.056451721166750346" cy="94.37608975775197" fill="#fcfcfc" r="1" stroke="none" /><circle cx="-19.134532028678763" cy="7.447126609586407" fill="#e4e4ed" r="1" stroke="none" /><circle cx="-23.63379832898904" cy="70.44443211525187" fill="#e4e4ed" r="1" stroke="none" /><circle cx="-24.917328978404598" cy="103.86020571891969" fill="#000dff" r="1" stroke="none" /><circle cx="-35.28036282750702" cy="18.112828363116172" fill="#6e72ba" r="1" stroke="none" /><circle cx="-42.17355300476966" cy="70.0050813632384" fill="#6e72ba" r="1" stroke="none" /><circle cx="-47.736150200380024" cy="132.5690837084199" fill="#6e72ba" r="1" stroke="none" /><circle cx="-51.87125215990462" cy="137.4036688268132" fill="#e4e4ed" r="1" stroke="none" /><circle cx="-57.54822903945711" cy="178.25898726996704" fill="#fcfcfc" r="1" stroke="none" /></svg>