<?xml version="1.0" encoding="utf-8" ?>
<svg baseProfile="full" height="100%" version="1.1" width="100%" xmlns="http://www.w3.org/2000/svg" xmlns:ev="http://www.w3.org/2001/xml-events" xmlns:xlink="http://www.w3.org/1999/xlink"><defs /><rect fill="black" height="2000" width="2000" x="0" y="0" /><circle cx="498.4296888597923" cy="344.8724930336126" fill="#FFFFFF" r="1.4" stroke="none" /><circle cx="490.11624771035076" cy="333.3426997496613" fill="#FFFFFF" r="1.2599999999999998" stroke="none" /><circle cx="478.18286259843126" cy="306.0803278252443" fill="#FFFFFF" r="1" stroke="none" /><circle cx="475.3481792932537" cy="277.7129387642698" fill="#e4e4ed" r="1" stroke="none" /><circle cx="472.19918859645196" cy="341.7791514473737" fill="#fcfcfc" r="1" stroke="none" /><circle cx="450.17202595853723" cy="72.7967159478542" fill="#fcfcfc" r="1" stroke="none" /><circle cx="460.47619743514207" cy="500.0" fill="#000dff" r="1" stroke="none" /><circle cx="450.0177424344531" cy="455.2223330942602" fill="#000dff" r="1" stroke="none" /><circle cx="429.2923642663398" cy="59.36670423097296" fill="#fcfcfc" r="1" stroke="none" /><circle cx="431.2799511859438" cy="160.3720449297016" fill="#fcfcfc" r="1" stroke="none" /><circle cx="426.55062500946275" cy="161.43080106681052" fill="#fcfcfc" r="1" stroke="none" /><circle cx="418.06922999913434" cy="79.00855002895585" fill="#fcfcfc" r="1" stroke="none" /><circle cx="418.0601805988036" cy="82.1672275203995" fill="#e4e4ed" r="1.2999999999999998" stroke="none" /><circle cx="416.26386414788067" cy="69.31310970440285" fill="#fcfcfc" r="1" stroke="none" /><circle cx="416.5790158951903" cy="75.94984895268652" fill="#e4e4ed" r="1" stroke="none" /><circle cx="414.75925415631184" cy="77.88683134656176" fill="#fcfcfc" r="1.13" stroke="none" /><circle cx="414.28110586461935" cy="74.57698127904533" fill="#fcfcfc" r="1" stroke="none" /><circle cx="413.86901570815894" cy="75.08946824598206" fill="#fcfcfc" r="1" stroke="none" /><circle cx="429.3287520157888" cy="404.7511641616828" fill="#6e72ba" r="1" stroke="none" /><circle cx="413.6867742636814" cy="85.4974729609585" fill="#000dff" r="1" stroke="none" /><circle cx="409.8514319504416" cy="83.00440734392977" fill="#e4e4ed" r="2.13" stroke="none" /><circle cx="418.28676155758706" cy="315.29613161370696" fill="#e4e4ed" r="1" stroke="none" /><circle cx="404.6189989062748" cy="84.34881198030008" fill="#e4e4ed" r="1.37" stroke="none" /><circle cx="404.4470731867661" cy="82.86850417040775" fill="#fcfcfc" r="1" stroke="none" /><circle cx="407.4255753056823" cy="397.9464759470174" fill="#fcfcfc" r="1" stroke="none" /><circle cx="381.61039417058504" cy="114.25604062585914" fill="#fcfcfc" r="1" stroke="none" /><circle cx="380.3730263497999" cy="101.81809234708189" fill="#fcfcfc" r="1" stroke="none" /><circle cx="375.43706302955366" cy="294.15724281207514" fill="#e4e4ed" r="1.5299999999999998" stroke="none" /><circle cx="368.95994017623553" cy="409.9861406368777" fill="#e4e4ed" r="1.0899999999999999" stroke="none" /><circle cx="356.2888380819575" cy="86.54108950689815" fill="#fcfcfc" r="1" stroke="none" /><circle cx="367.0226470772061" cy="419.81140715114105" fill="#fcfcfc" r="1" stroke="none" /><circle cx="356.6461495548353" cy="122.8077561637696" fill="#6e72ba" r="1" stroke="none" /><circle cx="354.614255728133" cy="124.22139436229146" fill="#fcfcfc" r="1" stroke="none" /><circle cx="346.5688967316002" cy="24.714527135058617" fill="#e4e4ed" r="1" stroke="none" /><circle cx="344.2268266732632" cy="0.0" fill="#e4e4ed" r="1" stroke="none" /><circle cx="343.4719514977563" cy="167.86246625431102" fill="#e4e4ed" r="1" stroke="none" /><circle cx="334.16679505222214" cy="45.15191192648121" fill="#e4e4ed" r="1" stroke="none" /><circle cx="340.52901230880263" cy="419.48930742336285" fill="#e4e4ed" r="1" stroke="none" /><circle cx="332.47946804037394" cy="381.15127390311375" fill="#fcfcfc" r="1" stroke="none" /><circle cx="330.8480173603438" cy="353.77605061566373" fill="#e4e4ed" r="1" stroke="none" /><circle cx="323.03828179978933" cy="244.29443713629573" fill="#e4e4ed" r="1" stroke="none" /><circle cx="325.3828924138306" cy="360.5523257111872" fill="#6e72ba" r="1" stroke="none" /><circle cx="316.360816541814" cy="151.4087516747698" fill="#e4e4ed" r="1" stroke="none" /><circle cx="312.30826334560885" cy="133.55215993704033" fill="#fcfcfc" r="1" stroke="none" /><circle cx="309.01959461038865" cy="141.48245687774445" fill="#fcfcfc" r="1" stroke="none" /><circle cx="308.23721702195087" cy="130.1671529784088" fill="#fcfcfc" r="1" stroke="none" /><circle cx="309.3486326223422" cy="240.59972911591353" fill="#e4e4ed" r="1.35" stroke="none" /><circle cx="303.8814726024082" cy="30.647947788602526" fill="#e4e4ed" r="1" stroke="none" /><circle cx="309.1267173015172" cy="269.18639279683066" fill="#6e72ba" r="1" stroke="none" /><circle cx="306.7124762324629" cy="250.2208356041872" fill="#6e72ba" r="1" stroke="none" /><circle cx="301.95862951218686" cy="268.5938906954481" fill="#6e72ba" r="1" stroke="none" /><circle cx="297.4515283729464" cy="61.41565465787174" fill="#e4e4ed" r="1" stroke="none" /><circle cx="298.32912513636677" cy="206.41971720059627" fill="#000dff" r="1.2400000000000002" stroke="none" /><circle cx="296.8567399160038" cy="220.20472362599224" fill="#fcfcfc" r="1" stroke="none" /><circle cx="293.2984675298466" cy="85.20151950159472" fill="#fcfcfc" r="1" stroke="none" /><circle cx="294.44547085814503" cy="208.26231061311" fill="#000dff" r="1" stroke="none" /><circle cx="296.3661513617951" cy="351.1663243601206" fill="#fcfcfc" r="1" stroke="none" /><circle cx="289.3093560766675" cy="121.20704125354254" fill="#fcfcfc" r="1" stroke="none" /><circle cx="289.17032433608125" cy="122.89782936183214" fill="#fcfcfc" r="1" stroke="none" /><circle cx="289.6864598793561" cy="199.63226064868067" fill="#e4e4ed" r="1" stroke="none" /><circle cx="289.53877139203007" cy="235.3538889121497" fill="#fcfcfc" r="1" stroke="none" /><circle cx="286.15187712833836" cy="111.93430287402379" fill="#e4e4ed" r="1" stroke="none" /><circle cx="287.1228242382537" cy="241.1802890258637" fill="#e4e4ed" r="1" stroke="none" /><circle cx="286.34616474179774" cy="257.4343285866561" fill="#e4e4ed" r="1" stroke="none" /><circle cx="282.92867643790356" cy="108.69890653919029" fill="#fcfcfc" r="1" stroke="none" /><circle cx="279.9490434589498" cy="227.94079770795202" fill="#e4e4ed" r="1" stroke="none" /><circle cx="280.2644879808555" cy="257.01287639948987" fill="#fcfcfc" r="1" stroke="none" /><circle cx="279.0732852561613" cy="177.24474312113801" fill="#000dff" r="1.4700000000000002" stroke="none" /><circle cx="279.5284871286946" cy="235.0870130231891" fill="#fcfcfc" r="1.1600000000000001" stroke="none" /><circle cx="279.24279778931987" cy="236.73143786780741" fill="#e4e4ed" r="1.6" stroke="none" /><circle cx="278.8677381984414" cy="287.3850365806151" fill="#fcfcfc" r="1" stroke="none" /><circle cx="274.23314906658356" cy="240.95160183821173" fill="#fcfcfc" r="1" stroke="none" /><circle cx="272.51577911977046" cy="239.99398981393804" fill="#e4e4ed" r="1" stroke="none" /><circle cx="272.70613305768643" cy="275.3006028344521" fill="#6e72ba" r="1" stroke="none" /><circle cx="268.386354849887" cy="237.14356553612953" fill="#e4e4ed" r="1" stroke="none" /><circle cx="261.65398230501614" cy="255.24192419867703" fill="#6e72ba" r="1" stroke="none" /><circle cx="254.65006885658943" cy="225.32925900256862" fill="#000dff" r="4.15" stroke="none" /><circle cx="255.38511229695126" cy="339.005936434268" fill="#e4e4ed" r="1" stroke="none" /><circle cx="247.05444540496947" cy="233.83779957448192" fill="#6e72ba" r="1" stroke="none" /><circle cx="246.8196671734768" cy="297.01176305643617" fill="#6e72ba" r="1" stroke="none" /><circle cx="243.65687798821594" cy="238.00651536299983" fill="#fcfcfc" r="1" stroke="none" /><circle cx="243.2549650538864" cy="235.8769870447821" fill="#fcfcfc" r="1" stroke="none" /><circle cx="240.2614407268433" cy="302.55195630512486" fill="#fcfcfc" r="1" stroke="none" /><circle cx="234.39537896769824" cy="109.3299724786479" fill="#fcfcfc" r="1" stroke="none" /><circle cx="231.4599626371856" cy="89.02264839984892" fill="#fcfcfc" r="1" stroke="none" /><circle cx="207.82551053245118" cy="235.47365342172287" fill="#e4e4ed" r="1" stroke="none" /><circle cx="203.22224947973777" cy="182.56139536193228" fill="#6e72ba" r="1" stroke="none" /><circle cx="184.57126642285527" cy="90.17784921500282" fill="#6e72ba" r="1" stroke="none" /><circle cx="184.1472015027769" cy="70.46198034083744" fill="#e4e4ed" r="1" stroke="none" /><circle cx="166.02396713526906" cy="131.61703744324876" fill="#fcfcfc" r="1" stroke="none" /><circle cx="149.79442194383202" cy="183.69129128308086" fill="#fcfcfc" r="1" stroke="none" /><circle cx="149.84936210919741" cy="151.7872695457298" fill="#fcfcfc" r="1" stroke="none" /><circle cx="151.9273898281926" cy="82.85678785216128" fill="#6e72ba" r="1" stroke="none" /><circle cx="150.42788774313792" cy="128.69627243547922" fill="#fcfcfc" r="1" stroke="none" /><circle cx="126.62767467514246" cy="116.7029760269116" fill="#e4e4ed" r="1" stroke="none" /><circle cx="114.20713377959424" cy="119.14084653571366" fill="#6e72ba" r="1" stroke="none" /><circle cx="94.85226438566774" cy="214.71153876756262" fill="#6e72ba" r="1" stroke="none" /><circle cx="92.84988164257662" cy="202.2145249247681" fill="#e4e4ed" r="1" stroke="none" /><circle cx="100.72106681074928" cy="1.5510424030331649" fill="#6e72ba" r="3.35" stroke="none" /><circle cx="86.72792832431215" cy="213.96717486259402" fill="#fcfcfc" r="1" stroke="none" /><circle cx="84.42060909881188" cy="191.010578664302" fill="#fcfcfc" r="1" stroke="none" /><circle cx="87.34297807005665" cy="119.66569998926158" fill="#fcfcfc" r="1" stroke="none" /><circle cx="80.49362094589041" cy="228.26380761945643" fill="#fcfcfc" r="1" stroke="none" /><circle cx="80.89826952100354" cy="203.71490134838004" fill="#fcfcfc" r="1" stroke="none" /><circle cx="86.46428670825712" cy="61.861520135116535" fill="#fcfcfc" r="1" stroke="none" /><circle cx="68.70333762593161" cy="178.06083779183558" fill="#fcfcfc" r="1" stroke="none" /><circle cx="64.39637969333184" cy="178.5879741161539" fill="#fcfcfc" r="1" stroke="none" /><circle cx="65.65822465247828" cy="79.64269113511874" fill="#fcfcfc" r="1" stroke="none" /><circle cx="51.236030129505615" cy="204.21502116368228" fill="#fcfcfc" r="1" stroke="none" /><circle cx="54.54696986701957" cy="130.56572144864282" fill="#e4e4ed" r="2.0" stroke="none" /><circle cx="55.52467617810958" cy="45.163534966125795" fill="#fcfcfc" r="1" stroke="none" /><circle cx="36.947882719709334" cy="211.6900126262926" fill="#fcfcfc" r="1" stroke="none" /><circle cx="18.465835975373935" cy="222.20820578133248" fill="#fcfcfc" r="1" stroke="none" /><circle cx="15.431059528980995" cy="245.86729708949056" fill="#fcfcfc" r="1" stroke="none" /><circle cx="18.729908477745973" cy="187.81118120806843" fill="#fcfcfc" r="1" stroke="none" /><circle cx="13.18301460519905" cy="256.17125786017226" fill="#6e72ba" r="1" stroke="none" /><circle cx="24.899687115660598" cy="65.1756211879031" fill="#fcfcfc" r="1" stroke="none" /><circle cx="5.92787864137112" cy="277.6534547421362" fill="#6e72ba" r="1" stroke="none" /><circle cx="4.676804706739479" cy="247.712397938385" fill="#e4e4ed" r="1" stroke="none" /><circle cx="-1.5703111402077807" cy="249.25257466717542" fill="#e4e4ed" r="1" stroke="none" /><circle cx="18.27384140866961" cy="9.60022452535486" fill="#fcfcfc" r="1" stroke="none" /><circle cx="0.8254527491818875" cy="36.77404228154385" fill="#fcfcfc" r="1" stroke="none" /></svg>